#!OML:ASF H:\Not Pregnant\Project 1\Capture day 1\Session 1\non-pregnant.ASF
:FULLY-SPECIFIED
:DEGREES
215
root -3.29865 15.832 34.3803 -211.249 -82.0641 -80.7297
lowerback 19.1689 3.57642 12.3091
upperback 9.86708 5.6627 2.42287
thorax 1.15939 2.8602 -5.24298
lowerneck 19.5721 -7.31311 -28.947
upperneck 16.6031 -18.8972 37.2321
head 8.88834 -10.9171 20.8107
rclavicle -6.20208e-014 3.97569e-016
rhumerus -10.9384 75.3318 -89.5939
rradius 97.6055
rwrist -26.2029
rhand -3.02825 -3.49916
rfingers 7.12502
rthumb 22.6869 -32.1856
lclavicle -6.20208e-014 3.97569e-016
lhumerus -99.7583 -37.8081 160.982
lradius 84.1208
lwrist 108.827
lhand 6.49305 -10.8545
lfingers 7.12502
lthumb 31.793 16.3927
rfemur -79.1944 8.04179 24.4803
rtibia 8.33638
rfoot 2.07191 1.82505
rtoes -12.5078
lfemur -86.9439 8.06757 -6.22933
ltibia 14.3452
lfoot 4.51121 -0.825421
ltoes -19.0488
216
root -3.29251 15.843 34.3825 -210.627 -82.0837 -81.8133
lowerback 19.0776 3.55304 12.2603
upperback 9.84247 5.6221 2.38758
thorax 1.16823 2.84221 -5.24322
lowerneck 19.6386 -7.24827 -29.0473
upperneck 16.7169 -18.8834 37.1356
head 8.90443 -10.9268 20.7942
rclavicle 5.08889e-014 7.09661e-014
rhumerus -11.3197 75.412 -90.0563
rradius 97.6179
rwrist -26.1501
rhand -3.17612 -3.62896
rfingers 7.12502
rthumb 22.5449 -32.3327
lclavicle 5.08889e-014 7.09661e-014
lhumerus -99.829 -37.8575 161.03
lradius 84.1465
lwrist 108.822
lhand 6.69308 -10.7517
lfingers 7.12502
lthumb 31.9835 16.4576
rfemur -78.5086 7.89813 25.1434
rtibia 8.1405
rfoot 1.97285 2.56467
rtoes -12.3027
lfemur -86.5354 8.00503 -6.36701
ltibia 14.4965
lfoot 4.37176 -0.887245
ltoes -19.1523
217
root -3.28665 15.8543 34.3847 -209.998 -82.1006 -82.915
lowerback 18.9797 3.53438 12.2118
upperback 9.81569 5.58723 2.35187
thorax 1.17918 2.82718 -5.24447
lowerneck 19.7128 -7.18588 -29.1391
upperneck 16.8222 -18.8728 37.0471
head 8.9178 -10.9389 20.7801
rclavicle -3.81667e-014 4.67144e-015
rhumerus -11.7276 75.437 -90.542
rradius 97.5686
rwrist -25.9788
rhand -3.28684 -3.82174
rfingers 7.12502
rthumb 22.4387 -32.5383
lclavicle -3.81667e-014 4.67144e-015
lhumerus -99.9035 -37.9014 161.074
lradius 84.1746
lwrist 108.793
lhand 6.87059 -10.6803
lfingers 7.12502
lthumb 32.1525 16.4949
rfemur -77.8109 7.73927 25.8029
rtibia 7.94657
rfoot 1.87399 3.30484
rtoes -12.0641
lfemur -86.1129 7.94445 -6.50532
ltibia 14.6478
lfoot 4.22974 -0.943927
ltoes -19.1556
218
root -3.2812 15.8655 34.3868 -209.409 -82.1135 -83.9856
lowerback 18.8721 3.518 12.1622
upperback 9.78601 5.55456 2.31984
thorax 1.19181 2.81315 -5.24092
lowerneck 19.7854 -7.12576 -29.2266
upperneck 16.9281 -18.8662 36.9618
head 8.93391 -10.9533 20.7669
rclavicle -5.88403e-014 -4.86029e-014
rhumerus -12.1466 75.4243 -91.047
rradius 97.4756
rwrist -25.7343
rhand -3.3708 -4.04598
rfingers 7.12502
rthumb 22.3581 -32.7722
lclavicle -5.88403e-014 -4.86029e-014
lhumerus -99.9669 -37.9351 161.104
lradius 84.2047
lwrist 108.74
lhand 7.03623 -10.6433
lfingers 7.12502
lthumb 32.3102 16.4999
rfemur -77.1085 7.56248 26.4644
rtibia 7.75979
rfoot 1.77644 4.04659
rtoes -11.7722
lfemur -85.6795 7.88551 -6.63786
ltibia 14.7978
lfoot 4.08751 -0.996371
ltoes -19.0771
219
root -3.27597 15.8769 34.3894 -208.845 -82.1278 -85.0364
lowerback 18.7507 3.49975 12.1217
upperback 9.75305 5.52006 2.28476
thorax 1.20912 2.79909 -5.24444
lowerneck 19.8527 -7.06966 -29.3034
upperneck 17.0374 -18.8646 36.8773
head 8.95353 -10.9695 20.7509
rclavicle -3.49861e-014 5.56597e-015
rhumerus -12.5927 75.3783 -91.5725
rradius 97.3611
rwrist -25.4318
rhand -3.44939 -4.26024
rfingers 7.12502
rthumb 22.2826 -32.9955
lclavicle -3.49861e-014 5.56597e-015
lhumerus -100.023 -37.9581 161.118
lradius 84.2402
lwrist 108.667
lhand 7.1838 -10.6278
lfingers 7.12502
lthumb 32.4506 16.4868
rfemur -76.4044 7.36461 27.1232
rtibia 7.58219
rfoot 1.68081 4.78847
rtoes -11.4226
lfemur -85.2378 7.82243 -6.76963
ltibia 14.9441
lfoot 3.9475 -1.03868
ltoes -18.8719
220
root -3.27131 15.888 34.3919 -208.342 -82.1385 -86.0283
lowerback 18.614 3.47845 12.0887
upperback 9.71575 5.48195 2.24949
thorax 1.22998 2.78386 -5.25089
lowerneck 19.9032 -7.01781 -29.3758
upperneck 17.1574 -18.8688 36.7885
head 8.98205 -10.9874 20.7304
rclavicle 4.13472e-014 -4.25399e-014
rhumerus -13.0903 75.3467 -92.1541
rradius 97.2805
rwrist -25.1535
rhand -3.5396 -4.42758
rfingers 7.12502
rthumb 22.196 -33.1732
lclavicle 4.13472e-014 -4.25399e-014
lhumerus -100.061 -37.9683 161.106
lradius 84.2823
lwrist 108.582
lhand 7.32024 -10.6316
lfingers 7.12502
lthumb 32.5805 16.4562
rfemur -75.7023 7.15093 27.7862
rtibia 7.41407
rfoot 1.58562 5.53033
rtoes -11.0385
lfemur -84.7914 7.76023 -6.89307
ltibia 15.0876
lfoot 3.81251 -1.08398
ltoes -18.6416
221
root -3.26713 15.8991 34.3947 -207.901 -82.1502 -86.96
lowerback 18.4636 3.44968 12.0695
upperback 9.67306 5.43596 2.21073
thorax 1.25279 2.76569 -5.26686
lowerneck 19.9357 -6.96828 -29.4447
upperneck 17.2905 -18.8769 36.6952
head 9.01976 -11.0064 20.7064
rclavicle -3.18055e-015 5.41688e-014
rhumerus -13.6339 75.3336 -92.7953
rradius 97.2283
rwrist -24.9121
rhand -3.6648 -4.53119
rfingers 7.12502
rthumb 22.0758 -33.2911
lclavicle -3.18055e-015 5.41688e-014
lhumerus -100.082 -37.9653 161.068
lradius 84.3316
lwrist 108.488
lhand 7.45269 -10.657
lfingers 7.12502
lthumb 32.7065 16.4047
rfemur -74.9993 6.91656 28.451
rtibia 7.25107
rfoot 1.493 6.27049
rtoes -10.6136
lfemur -84.341 7.69267 -7.01069
ltibia 15.2293
lfoot 3.67968 -1.12509
ltoes -18.3569
222
root -3.2635 15.9103 34.3975 -207.488 -82.1599 -87.8686
lowerback 18.3046 3.4192 12.0548
upperback 9.62532 5.38843 2.17143
thorax 1.27487 2.74695 -5.28534
lowerneck 19.9531 -6.92341 -29.5146
upperneck 17.4313 -18.892 36.5999
head 9.06699 -11.0285 20.681
rclavicle 7.95139e-015 -1.91827e-014
rhumerus -14.2215 75.3259 -93.4934
rradius 97.1877
rwrist -24.6944
rhand -3.8305 -4.55767
rfingers 7.12502
rthumb 21.9167 -33.3363
lclavicle 7.95139e-015 -1.91827e-014
lhumerus -100.092 -37.9532 161.013
lradius 84.3835
lwrist 108.387
lhand 7.58459 -10.7093
lfingers 7.12502
lthumb 32.832 16.3262
rfemur -74.2926 6.66645 29.1125
rtibia 7.08852
rfoot 1.40417 7.00849
rtoes -10.1765
lfemur -83.8836 7.625 -7.12469
ltibia 15.3711
lfoot 3.54977 -1.17375
ltoes -18.1339
223
root -3.26043 15.9217 34.4004 -207.077 -82.1712 -88.78
lowerback 18.1407 3.38894 12.0414
upperback 9.57074 5.34217 2.1308
thorax 1.29255 2.7287 -5.30625
lowerneck 19.9658 -6.88289 -29.5821
upperneck 17.5721 -18.9139 36.5088
head 9.11939 -11.0545 20.6574
rclavicle -1.74931e-014 1.635e-014
rhumerus -14.8482 75.3133 -94.231
rradius 97.1546
rwrist -24.4997
rhand -4.03026 -4.52393
rfingers 7.12502
rthumb 21.7249 -33.3248
lclavicle -1.74931e-014 1.635e-014
lhumerus -100.1 -37.9329 160.951
lradius 84.4388
lwrist 108.285
lhand 7.7166 -10.7911
lfingers 7.12502
lthumb 32.9575 16.2181
rfemur -73.58 6.39563 29.7688
rtibia 6.92174
rfoot 1.32247 7.74904
rtoes -9.7325
lfemur -83.4168 7.5544 -7.24014
ltibia 15.5105
lfoot 3.42214 -1.22686
ltoes -17.9704
224
root -3.25783 15.9332 34.4033 -206.648 -82.183 -89.7166
lowerback 17.9746 3.36178 12.02
upperback 9.50986 5.29971 2.09183
thorax 1.30386 2.71156 -5.32182
lowerneck 19.9802 -6.84543 -29.6469
upperneck 17.7065 -18.9404 36.4242
head 9.17256 -11.0838 20.6367
rclavicle -6.83819e-014 -2.54941e-014
rhumerus -15.5002 75.281 -94.9887
rradius 97.1202
rwrist -24.3346
rhand -4.25664 -4.43598
rfingers 7.12502
rthumb 21.5075 -33.2619
lclavicle -6.83819e-014 -2.54941e-014
lhumerus -100.101 -37.9038 160.887
lradius 84.4869
lwrist 108.183
lhand 7.86252 -10.877
lfingers 7.12502
lthumb 33.0963 16.1028
rfemur -72.8606 6.10406 30.4151
rtibia 6.74759
rfoot 1.24605 8.49179
rtoes -9.31971
lfemur -82.9379 7.48231 -7.3591
ltibia 15.6473
lfoot 3.2965 -1.285
ltoes -17.8911
225
root -3.25559 15.9451 34.4068 -206.184 -82.1993 -90.6967
lowerback 17.8071 3.3352 11.9992
upperback 9.44114 5.2595 2.04791
thorax 1.30835 2.69538 -5.34367
lowerneck 20.0033 -6.80814 -29.7044
upperneck 17.8324 -18.9685 36.3511
head 9.22281 -11.1152 20.6219
rclavicle 7.15625e-014 -3.81667e-014
rhumerus -16.1854 75.2152 -95.7677
rradius 97.0857
rwrist -24.1975
rhand -4.47253 -4.34874
rfingers 7.12502
rthumb 21.3001 -33.1982
lclavicle 7.15625e-014 -3.81667e-014
lhumerus -100.11 -37.8644 160.825
lradius 84.5327
lwrist 108.086
lhand 8.00948 -10.9451
lfingers 7.12502
lthumb 33.236 16.005
rfemur -72.1342 5.78723 31.0461
rtibia 6.5645
rfoot 1.17788 9.23516
rtoes -8.92701
lfemur -82.446 7.40486 -7.48615
ltibia 15.7794
lfoot 3.17252 -1.3393
ltoes -17.8224
